<svg width="100" height="100" viewBox="0 0 100 100" fill="none" xmlns="http://www.w3.org/2000/svg">
<circle cx="50" cy="50" r="49" stroke="#EEA47F" stroke-width="2"/>
<path d="M24.1215 71C23.8441 71 23.5495 70.948 23.2375 70.844C22.9255 70.7053 22.6655 70.532 22.4575 70.324C22.2495 70.0813 22.1455 69.8213 22.1455 69.544C22.1455 69.4053 22.1628 69.284 22.1975 69.18L33.0655 33.924C33.2041 33.4733 33.4641 33.1613 33.8455 32.988C34.2268 32.78 34.6428 32.676 35.0935 32.676C35.5788 32.676 36.0121 32.78 36.3935 32.988C36.8095 33.196 37.0695 33.508 37.1735 33.924L47.9895 69.18C48.0241 69.284 48.0415 69.388 48.0415 69.492C48.0415 69.7693 47.9375 70.0293 47.7295 70.272C47.5215 70.48 47.2615 70.6533 46.9495 70.792C46.6375 70.9307 46.3081 71 45.9615 71C45.6841 71 45.4241 70.9307 45.1815 70.792C44.9388 70.6533 44.7655 70.428 44.6615 70.116L42.2695 62.108H27.9175L25.5255 70.116C25.4215 70.428 25.2481 70.6533 25.0055 70.792C24.7628 70.9307 24.4681 71 24.1215 71ZM28.7495 59.144H41.3855L35.0935 38.188L28.7495 59.144ZM54.7539 71C54.3033 71 53.9046 70.896 53.5579 70.688C53.2113 70.4453 53.0379 70.0987 53.0379 69.648V34.288C53.0379 33.8373 53.2113 33.508 53.5579 33.3C53.9046 33.092 54.3033 32.988 54.7539 32.988C55.1699 32.988 55.5513 33.092 55.8979 33.3C56.2793 33.508 56.4699 33.8373 56.4699 34.288V49.784H71.4979V34.288C71.4979 33.8373 71.6713 33.508 72.0179 33.3C72.3646 33.092 72.7633 32.988 73.2139 32.988C73.6299 32.988 74.0113 33.092 74.3579 33.3C74.7393 33.508 74.9299 33.8373 74.9299 34.288V69.648C74.9299 70.0987 74.7393 70.4453 74.3579 70.688C74.0113 70.896 73.6299 71 73.2139 71C72.7633 71 72.3646 70.896 72.0179 70.688C71.6713 70.4453 71.4979 70.0987 71.4979 69.648V52.8H56.4699V69.648C56.4699 70.0987 56.2793 70.4453 55.8979 70.688C55.5513 70.896 55.1699 71 54.7539 71Z" fill="#EEA47F"/>
</svg>
