<svg width="87" height="6" viewBox="0 0 87 6" fill="none" xmlns="http://www.w3.org/2000/svg">
<path d="M201.561 -5.96046e-08C197.914 -5.96046e-08 195.995 1.04939 194.302 1.9751C192.704 2.84816 191.196 3.67347 188.124 3.67347C185.052 3.67347 183.542 2.84816 181.946 1.9751C180.252 1.04939 178.333 -5.96046e-08 174.686 -5.96046e-08C171.039 -5.96046e-08 169.12 1.04939 167.427 1.9751C165.83 2.84816 164.321 3.67347 161.249 3.67347C158.177 3.67347 156.667 2.84816 155.071 1.9751C153.377 1.04939 151.458 -5.96046e-08 147.811 -5.96046e-08C144.164 -5.96046e-08 142.245 1.04939 140.552 1.9751C138.955 2.84816 137.446 3.67347 134.374 3.67347C131.302 3.67347 129.792 2.84816 128.196 1.9751C126.502 1.04939 124.583 -5.96046e-08 120.936 -5.96046e-08C117.289 -5.96046e-08 115.37 1.04939 113.677 1.9751C112.08 2.84816 110.571 3.67347 107.499 3.67347C104.427 3.67347 102.917 2.84816 101.321 1.9751C99.6275 1.04939 97.7084 -5.96046e-08 94.0613 -5.96046e-08C90.4142 -5.96046e-08 88.4951 1.04939 86.802 1.9751C85.2052 2.84816 83.6961 3.67347 80.6238 3.67347C77.5515 3.67347 76.0424 2.84816 74.4456 1.9751C72.7525 1.04939 70.8334 -5.96046e-08 67.1863 -5.96046e-08C63.5392 -5.96046e-08 61.6201 1.04939 59.927 1.9751C58.3302 2.84816 56.8211 3.67347 53.7488 3.67347C50.6765 3.67347 49.1674 2.84816 47.5706 1.9751C45.8775 1.04939 43.9584 -5.96046e-08 40.3113 -5.96046e-08C36.6642 -5.96046e-08 34.7451 1.04939 33.052 1.9751C31.4552 2.84816 29.9461 3.67347 26.875 3.67347C23.8027 3.67347 22.2936 2.84816 20.6968 1.9751C19.0037 1.04939 17.0846 -5.96046e-08 13.4375 -5.96046e-08C9.79044 -5.96046e-08 7.87131 1.04939 6.17824 1.9751C4.58138 2.84816 3.07229 3.67347 0 3.67347V6C3.64706 6 5.56619 4.95061 7.25926 4.0249C8.85612 3.15184 10.3652 2.32653 13.4375 2.32653C16.5098 2.32653 18.0189 3.15184 19.6157 4.0249C21.3088 4.95061 23.2279 6 26.875 6C30.5221 6 32.4412 4.95061 34.1343 4.0249C35.7311 3.15184 37.2402 2.32653 40.3113 2.32653C43.3836 2.32653 44.8927 3.15184 46.4895 4.0249C48.1838 4.95061 50.1029 6 53.7488 6C57.3947 6 59.315 4.95061 61.0081 4.0249C62.6061 3.15184 64.1152 2.32653 67.1863 2.32653C70.2586 2.32653 71.7677 3.15184 73.3645 4.0249C75.0588 4.95061 76.9779 6 80.6238 6C84.2697 6 86.19 4.95061 87.8831 4.0249C89.4811 3.15184 90.989 2.32653 94.0613 2.32653C97.1336 2.32653 98.6427 3.15184 100.24 4.0249C101.933 4.95061 103.852 6 107.499 6C111.146 6 113.065 4.95061 114.758 4.0249C116.355 3.15184 117.864 2.32653 120.936 2.32653C124.009 2.32653 125.518 3.15184 127.115 4.0249C128.808 4.95061 130.727 6 134.374 6C138.021 6 139.94 4.95061 141.633 4.0249C143.23 3.15184 144.739 2.32653 147.811 2.32653C150.884 2.32653 152.393 3.15184 153.99 4.0249C155.683 4.95061 157.602 6 161.249 6C164.896 6 166.815 4.95061 168.508 4.0249C170.105 3.15184 171.614 2.32653 174.686 2.32653C177.759 2.32653 179.268 3.15184 180.865 4.0249C182.558 4.95061 184.477 6 188.124 6C191.771 6 193.69 4.95061 195.383 4.0249C196.981 3.15184 198.489 2.32653 201.561 2.32653C204.634 2.32653 206.143 3.15184 207.74 4.0249C209.434 4.95061 211.353 6 215 6V3.67347C211.928 3.67347 210.419 2.84816 208.822 1.9751C207.127 1.04939 205.208 -5.96046e-08 201.561 -5.96046e-08Z" fill="#EC8F5A"/>
</svg>
